<?xml version="1.0" encoding="UTF-8"?><svg id="Layer_1" xmlns="http://www.w3.org/2000/svg" viewBox="0 0 220.35 244.46"><defs><style>.cls-1,.cls-2{fill:#ffb611;}.cls-2{fill-rule:evenodd;}</style></defs><g><path class="cls-2" d="M52.72,47.38c5.3-3.5,10.9-6.4,16.49-8.8-2.3,1.2-4.5,2.6-6.8,4C18.03,71.58,6.24,130.15,36.03,173.44c29.79,43.28,89.87,54.78,134.25,25.79,9.6-6.2,17.59-13.9,24.09-22.39-7.4,12.4-17.59,23.29-30.69,31.79-45.68,29.89-107.66,17.99-138.25-26.59C-5.16,137.65,7.04,77.27,52.72,47.38h0Z"/><path class="cls-2" d="M202.47,81.77c30.89,48.48,16.99,112.56-32.09,144.55-50.18,32.89-118.16,19.79-151.85-29.09C-1.26,168.44-4.76,133.65,5.94,103.26c-6.9,27.19-2.5,56.98,14.79,82.07,32.39,47.08,97.97,59.68,146.35,28.09,44.58-29.29,58.98-85.97,35.39-131.65h0Z"/><path class="cls-2" d="M91.81,201.53c12.4-25.69-15.59-42.89-26.89-54.78-9.6-10.2-15.79-23.09-4-44.78,.8,18.19,10.3,27.69,20.59,35.49,35.09,26.69,28.39,52.68,10.3,64.08h0Z"/><path class="cls-2" d="M113.8,0c-4.2,23.19,13.9,43.88,31.69,62.58,23.99,25.19,42.29,46.28,32.09,83.37-4.1,14.99-13,27.89-24.89,36.99,12.5-20.39,10.3-47.28-6.5-65.48h0c-8.5-10.5-20.29-19.09-29.69-30.79C94.71,59.68,85.21,26.99,113.8,0h0Z"/><path class="cls-2" d="M99.8,203.83c16.69-7.9,22.59-22.69,20.29-37.09-3.3-20.79-24.29-35.99-36.89-51.98-14.3-18.19-22.49-40.19,.1-74.07-1.4,29.99,12.8,47.08,28.59,61.38,21.39,19.49,48.28,37.79,37.29,71.18-6.8,20.89-27.69,33.79-49.38,30.59h0Z"/></g><g><path class="cls-1" d="M203.76,211.27c-9.16,0-16.59,7.43-16.59,16.59s7.43,16.59,16.59,16.59,16.59-7.43,16.59-16.59-7.43-16.59-16.59-16.59Zm0,30.82c-7.86,0-14.22-6.37-14.22-14.22s6.37-14.22,14.22-14.22,14.22,6.37,14.22,14.22-6.37,14.22-14.22,14.22Z"/><path class="cls-1" d="M201.39,229.07h-1.28v5.69c0,.75-.17,1.3-.5,1.65-.34,.35-.77,.53-1.32,.53-.58,0-1.03-.18-1.35-.55-.32-.37-.48-.91-.48-1.63v-13.62c0-.77,.18-1.33,.53-1.68,.35-.35,.92-.52,1.71-.52h5.94c.82,0,1.52,.03,2.1,.1,.58,.07,1.11,.21,1.57,.42,.57,.23,1.07,.57,1.5,1s.76,.94,.99,1.52,.34,1.19,.34,1.83c0,1.32-.38,2.37-1.14,3.16-.76,.79-1.91,1.35-3.45,1.68,.65,.34,1.27,.84,1.86,1.5s1.12,1.36,1.58,2.11c.46,.74,.82,1.42,1.08,2.02,.26,.6,.39,1.01,.39,1.24s-.08,.46-.23,.69c-.15,.23-.36,.41-.62,.54-.26,.13-.56,.2-.91,.2-.41,0-.75-.09-1.03-.28-.28-.19-.52-.43-.72-.72s-.47-.72-.82-1.28l-1.46-2.39c-.53-.88-.99-1.55-1.41-2s-.83-.77-1.26-.94-.96-.25-1.61-.25Zm2.09-7.44h-3.37v4.87h3.27c.88,0,1.62-.07,2.21-.22,.6-.15,1.06-.4,1.37-.76,.32-.36,.47-.85,.47-1.48,0-.49-.13-.92-.38-1.3-.25-.37-.61-.65-1.06-.84-.43-.18-1.27-.27-2.52-.27Z"/></g></svg>